<svg t="1722605638686" viewBox="0 0 1024 1024" version="1.1" xmlns="http://www.w3.org/2000/svg" p-id="2870"
    xmlns:xlink="http://www.w3.org/1999/xlink" width="200" height="200">
    <path
        d="M656.270222 860.330667l-3.413333 1.308444-1.479111 0.682667c-80.611556 34.816-190.919111 34.304-281.6-1.877334a36.010667 36.010667 0 0 1-3.299556-1.479111c-81.180444-42.211556-127.032889-104.220444-135.395555-183.751111a36.010667 36.010667 0 0 1 71.623111-7.964444v0.568889c5.688889 53.703111 35.84 94.947556 95.175111 126.293333l0.170667 0.113778 0.568888 0.227555c72.931556 28.330667 162.190222 28.501333 224.085334 1.820445l1.877333-0.853334a36.010667 36.010667 0 0 1 1.934222-0.796444c49.493333-18.545778 81.976889-52.167111 91.534223-90.339556 9.329778-37.205333-3.754667-76.231111-39.822223-108.373333a102.286222 102.286222 0 0 0-32.142222-19.911111h111.104c74.126222 100.352 29.696 232.789333-100.920889 284.330667z m203.719111-384.341334a36.010667 36.010667 0 1 1 0 72.021334H164.010667a36.010667 36.010667 0 0 1 0-72.021334h695.978666z m-208.213333-312.32c1.137778 0.398222 2.275556 0.967111 3.356444 1.536 79.644444 42.268444 124.586667 104.277333 132.664889 183.637334a36.010667 36.010667 0 0 1-71.566222 7.907555v-0.568889c-5.518222-53.361778-34.531556-94.321778-91.363555-125.496889l-1.877334-1.024-0.512-0.227555c-71.111111-28.216889-158.151111-28.330667-218.453333-1.820445l-1.820445 0.853334a36.010667 36.010667 0 0 1-1.991111 0.796444c-48.298667 18.488889-79.985778 52.053333-89.315555 90.282667-9.216 37.432889 3.640889 76.629333 39.025778 108.771555 9.159111 8.362667 18.545778 14.677333 30.947555 19.683556H271.189333c-72.817778-100.295111-29.354667-232.561778 98.929778-284.216889l3.299556-1.308444 1.479111-0.682667c79.246222-34.929778 187.733333-34.417778 276.878222 1.820444z"
        p-id="2871"></path>
</svg>