<svg t="1722605620781" viewBox="0 0 1024 1024" version="1.1" xmlns="http://www.w3.org/2000/svg" p-id="2425"
    xmlns:xlink="http://www.w3.org/1999/xlink" width="200" height="200">
    <path
        d="M259.015111 885.987556V138.012444h315.790222c34.816 0 76.003556 21.731556 107.690667 55.921778a216.860444 216.860444 0 0 1 57.457778 149.048889c0 58.026667-21.162667 109.568-56.888889 148.48 19.911111 9.386667 39.367111 22.926222 56.433778 39.424a206.620444 206.620444 0 0 1 64.512 150.129778A206.734222 206.734222 0 0 1 739.555556 831.089778c-34.474667 33.393778-78.791111 54.499556-115.768889 54.897778H259.015111z m71.964445-72.021334h291.726222c16.896 0 44.544-13.027556 66.787555-34.588444a134.997333 134.997333 0 0 0-0.056889-196.778667c-22.072889-21.333333-49.493333-34.360889-66.389333-34.588444H330.979556v265.955555z m0-337.976889h243.825777a54.215111 54.215111 0 0 0 22.186667-7.168c11.150222-5.916444 22.528-14.734222 32.654222-25.656889a145.009778 145.009778 0 0 0 38.343111-100.124444c0-39.765333-14.222222-74.183111-38.343111-100.181333a125.269333 125.269333 0 0 0-32.711111-25.656889 55.182222 55.182222 0 0 0-21.845333-7.224889H330.979556v266.012444z"
        p-id="2426"></path>
</svg>