<svg t="1722675868864" viewBox="0 0 1024 1024" version="1.1" xmlns="http://www.w3.org/2000/svg" p-id="5343" width="200"
    height="200">
    <path
        d="M853.333333 0a170.666667 170.666667 0 0 1 170.666667 170.666667v682.666666a170.666667 170.666667 0 0 1-170.666667 170.666667H170.666667a170.666667 170.666667 0 0 1-170.666667-170.666667V170.666667a170.666667 170.666667 0 0 1 170.666667-170.666667h682.666666z m0 85.333333H170.666667a85.333333 85.333333 0 0 0-84.736 75.349334L85.333333 170.666667v682.666666a85.333333 85.333333 0 0 0 75.349334 84.736L170.666667 938.666667h682.666666a85.333333 85.333333 0 0 0 84.736-75.349334L938.666667 853.333333V170.666667a85.333333 85.333333 0 0 0-75.349334-84.736L853.333333 85.333333zM341.333333 554.666667a128 128 0 1 1 0 256 128 128 0 0 1 0-256z m0 85.333333a42.666667 42.666667 0 1 0 0 85.333333 42.666667 42.666667 0 0 0 0-85.333333z m426.666667-10.666667a42.666667 42.666667 0 0 1 7.68 84.650667L768 714.666667H597.333333a42.666667 42.666667 0 0 1-7.68-84.650667L597.333333 629.333333h170.666667zM454.997333 224.085333a42.666667 42.666667 0 0 1 8.106667 54.101334l-4.522667 6.144-113.834666 128a42.666667 42.666667 0 0 1-54.186667 8.021333l-6.229333-4.608-60.928-54.869333a42.666667 42.666667 0 0 1 50.944-68.096l6.144 4.693333 29.013333 26.026667 85.333333-95.829334a42.666667 42.666667 0 0 1 60.16-3.584zM768 298.666667a42.666667 42.666667 0 0 1 7.68 84.650666L768 384H597.333333a42.666667 42.666667 0 0 1-7.68-84.650667L597.333333 298.666667h170.666667z"
        p-id="5344"></path>
</svg>