<svg t="1722605729945" class="icon" viewBox="0 0 1024 1024" version="1.1" xmlns="http://www.w3.org/2000/svg" p-id="3907"
    xmlns:xlink="http://www.w3.org/1999/xlink" width="200" height="200">
    <path
        d="M360.106667 170.666667a42.666667 42.666667 0 0 0 0-85.333334H238.933333a42.666667 42.666667 0 0 0-42.666666 42.666667v280.746667l-72.96 72.96a42.666667 42.666667 0 0 0 0 60.586666l72.96 72.96V896a42.666667 42.666667 0 0 0 42.666666 42.666667h121.173334a42.666667 42.666667 0 0 0 0-85.333334H281.6v-256a42.666667 42.666667 0 0 0-2.986667-16.64 46.506667 46.506667 0 0 0-10.24-14.933333L213.333333 512l54.613334-54.613333a46.506667 46.506667 0 0 0 10.24-14.933334A42.666667 42.666667 0 0 0 281.6 426.666667V170.666667zM902.4 481.706667l-72.96-72.96V128a42.666667 42.666667 0 0 0-42.666667-42.666667H665.6a42.666667 42.666667 0 0 0 0 85.333334h78.506667v256a42.666667 42.666667 0 0 0 2.986666 16.64 46.506667 46.506667 0 0 0 10.24 14.933333L810.666667 512l-54.613334 54.613333a46.506667 46.506667 0 0 0-10.24 14.933334 42.666667 42.666667 0 0 0-2.986666 16.64v256H665.6a42.666667 42.666667 0 0 0 0 85.333333h121.173333a42.666667 42.666667 0 0 0 42.666667-42.666667v-281.6l72.96-72.96a42.666667 42.666667 0 0 0 0-60.586666z"
        p-id="3908"></path>
</svg>