<?xml version="1.0" standalone="no"?><!DOCTYPE svg PUBLIC "-//W3C//DTD SVG 1.1//EN" "http://www.w3.org/Graphics/SVG/1.1/DTD/svg11.dtd"><svg t="1722605634079" class="icon" viewBox="0 0 1024 1024" version="1.1" xmlns="http://www.w3.org/2000/svg" p-id="2721" xmlns:xlink="http://www.w3.org/1999/xlink" width="200" height="200"><path d="M731.989333 814.023111a36.010667 36.010667 0 1 1 0 71.964445H292.010667a36.010667 36.010667 0 0 1 0-71.964445h439.978666z m0-676.010667c19.683556 0 35.669333 15.758222 36.010667 35.384889v278.186667c0 176.753778-92.558222 284.444444-256 284.444444-161.792 0-254.122667-105.585778-256-279.153777V174.08a36.010667 36.010667 0 0 1 72.021333-0.568889v278.186667c0 69.404444 16.270222 123.050667 46.705778 158.492444 30.264889 35.271111 75.776 53.873778 137.272889 53.873778 61.496889 0 106.951111-18.659556 137.272889-53.873778 30.151111-35.100444 46.421333-88.007111 46.705778-156.444444V174.08c0-19.911111 16.156444-36.010667 36.010666-36.010667z" fill="#666666" p-id="2722"></path></svg>