<svg t="1722605704366" viewBox="0 0 1024 1024" version="1.1" xmlns="http://www.w3.org/2000/svg" p-id="3313"
    xmlns:xlink="http://www.w3.org/1999/xlink" width="200" height="200">
    <path
        d="M984.615385 196.923077c0-43.323077-35.446154-78.769231-78.769231-78.769231H118.153846c-43.323077 0-78.769231 35.446154-78.769231 78.769231v630.153846c0 43.323077 35.446154 78.769231 78.769231 78.769231h787.692308c43.323077 0 78.769231-35.446154 78.769231-78.769231V196.923077zM779.815385 748.307692h-571.076923c-23.630769 0-37.415385-25.6-25.6-45.292307l173.292307-301.292308c7.876923-13.784615 25.6-13.784615 33.476923 0l104.369231 179.2c7.876923 11.815385 25.6 13.784615 33.476923 1.969231l84.676923-122.092308c7.876923-11.815385 25.6-11.815385 33.476923 0L801.476923 708.923077c11.815385 17.723077 0 39.384615-21.661538 39.384615zM728.615385 393.846154c-43.323077 0-78.769231-35.446154-78.769231-78.769231s35.446154-78.769231 78.769231-78.769231 78.769231 35.446154 78.76923 78.769231-35.446154 78.769231-78.76923 78.769231z"
        p-id="3314"></path>
</svg>